<?xml version="1.0" encoding="UTF-8"?>
<svg width="18px" height="18px" viewBox="0 0 18 18" version="1.1" xmlns="http://www.w3.org/2000/svg" xmlns:xlink="http://www.w3.org/1999/xlink">
    <!-- Generator: Sketch 47.1 (45422) - http://www.bohemiancoding.com/sketch -->
    <title>dribbble</title>
    <desc>Created with Sketch.</desc>
    <defs></defs>
    <g id="Page-1" stroke="none" stroke-width="1" fill="none" fill-rule="evenodd">
        <g id="Home-page" transform="translate(-286.000000, -1272.000000)" fill-rule="nonzero" fill="#999999">
            <g id="Group-10" transform="translate(250.000000, 1230.000000)">
                <g id="dribbble" transform="translate(36.000000, 42.000000)">
                    <path d="M9,0 C4.029,0 0,4.02975 0,9 C0,13.97025 4.029,18 9,18 C13.971,18 18,13.97025 18,9 C18,4.02975 13.971,0 9,0 Z M16.41375,8.58075 C14.4825,8.26425 12.7065,8.247 11.0865,8.526 C10.9035,8.10375 10.71375,7.68225 10.51125,7.266 C12.24375,6.516 13.635,5.4975 14.67225,4.2045 C15.68475,5.4 16.32,6.91875 16.41375,8.58075 Z M13.53225,3.11925 C12.6285,4.28475 11.38125,5.2065 9.79275,5.87925 C9.03075,4.4835 8.15925,3.12225 7.17675,1.80075 C7.761,1.653 8.37,1.56525 9,1.56525 C10.70625,1.56525 12.276,2.1495 13.53225,3.11925 Z M5.64525,2.3745 C6.6435,3.681 7.5285,5.028 8.298,6.41025 C6.4755,6.9465 4.29975,7.22175 1.785,7.239 C2.304,5.11275 3.73575,3.34425 5.64525,2.3745 L5.64525,2.3745 Z M1.56525,9 L1.575,8.808 C4.46175,8.80425 6.95175,8.472 9.0375,7.8165 C9.21225,8.17275 9.3795,8.5305 9.54,8.8905 C7.005,9.68325 4.91625,11.307 3.28725,13.7505 C2.21325,12.46125 1.56525,10.80525 1.56525,9 L1.56525,9 Z M4.437,14.8575 C5.91375,12.5415 7.7985,11.034 10.1355,10.33725 C10.8315,12.15225 11.34225,14.01975 11.66775,15.93225 C9.156,16.9005 6.453,16.43175 4.437,14.8575 Z M13.1265,15.18 C12.798,13.41525 12.3165,11.69025 11.6865,10.00725 C13.0935,9.8085 14.6415,9.86025 16.33575,10.15425 C16.008,12.24375 14.81475,14.04825 13.1265,15.18 Z" id="Shape"></path>
                </g>
            </g>
        </g>
    </g>
</svg>