<svg width="62" height="61" xmlns="http://www.w3.org/2000/svg" xmlns:xlink="http://www.w3.org/1999/xlink" xml:space="preserve" overflow="hidden"><defs><clipPath id="clip0"><rect x="102" y="32" width="62" height="61"/></clipPath><clipPath id="clip1"><rect x="103" y="32" width="60" height="61"/></clipPath><clipPath id="clip2"><rect x="103" y="32" width="60" height="62"/></clipPath></defs><g clip-path="url(#clip0)" transform="translate(-102 -32)"><g clip-path="url(#clip1)"><g clip-path="url(#clip2)"><path d="M20.3778 34.2911C20.3243 34.2901 20.9651 35.6461 20.9829 35.6461 22.3816 38.1419 25.0778 39.6933 29.6259 40.1238 28.9772 40.6079 28.1975 41.5265 28.0894 42.5879 27.273 43.1067 25.6313 43.2783 24.3556 42.8825 22.5671 42.328 21.8827 38.8492 19.2054 39.3451 18.626 39.4513 18.7411 39.8272 19.2421 40.1466 20.0584 40.6664 20.8262 41.3162 21.4184 42.698 21.8737 43.7594 22.83 45.655 25.8555 45.655 27.0557 45.655 27.8969 45.5131 27.8969 45.5131 27.8969 45.5131 27.9197 48.2222 27.9197 49.2757 27.9197 50.4908 26.2513 50.833 26.2513 51.4173 26.2513 51.6484 26.8038 51.6702 27.2472 51.6702 28.1241 51.6702 29.9483 50.9511 29.9483 49.6883 29.9483 48.6854 29.9652 45.3128 29.9652 44.7226 29.9652 43.433 30.6685 43.0243 30.6685 43.0243 30.6685 43.0243 30.7557 49.9085 30.5008 50.833 30.2012 51.9182 29.6606 51.7645 29.6606 52.2486 29.6606 52.9687 31.8568 52.4261 32.5849 50.8439 33.1474 49.6149 32.9014 42.8587 32.9014 42.8587L33.5015 42.8468C33.5015 42.8468 33.5352 45.9387 33.5144 47.3522 33.4936 48.8164 33.3924 50.6674 34.2772 51.5403 34.8585 52.1146 36.7412 53.1215 36.7412 52.2009 36.7412 51.6663 35.7096 51.2268 35.7096 49.7796L35.7096 43.1186C36.5339 43.1186 36.4099 45.3088 36.4099 45.3088L36.4704 49.3788C36.4704 49.3788 36.2879 50.8608 38.1022 51.4808 38.742 51.702 40.1109 51.7605 40.1754 51.3915 40.2399 51.0215 38.5268 50.471 38.5109 49.3243 38.501 48.6229 38.5426 48.2143 38.5426 45.1709 38.5426 42.1276 38.127 41.0027 36.6777 40.106 41.1495 39.6546 43.9181 38.5674 45.2661 35.656 45.3713 35.659 45.8167 34.2961 45.7582 34.2961 46.0607 33.197 46.2244 31.8965 46.2561 30.357 46.2482 26.1808 44.2147 24.7038 43.8248 24.0104 44.4002 20.849 43.7276 19.4107 43.4161 18.9167 42.2635 18.514 39.4076 19.9533 37.8463 20.9661 35.3029 20.235 29.9245 20.3054 27.9078 21.1546 24.187 18.5368 22.2179 18.9375 22.2179 18.9375 22.2179 18.9375 20.9453 21.1784 21.8817 24.4578 20.6576 25.9914 19.745 27.0766 19.745 29.9523 19.746 31.5741 19.9404 33.0244 20.3778 34.2911ZM32.7347 63.4855C16.2999 63.4855 2.97588 50.1625 2.97588 33.7267 2.97588 17.2909 16.2999 3.96784 32.7347 3.96784 49.1695 3.96784 62.4935 17.2909 62.4935 33.7267 62.4935 50.1625 49.1695 63.4855 32.7347 63.4855Z" fill="#929292" fill-rule="evenodd" fill-opacity="1" transform="matrix(1 0 0 1.01664 100.316 28.1973)"/></g></g></g></svg>