<?xml version="1.0" encoding="utf-8"?>
<!-- Generator: Adobe Illustrator 17.0.0, SVG Export Plug-In . SVG Version: 6.00 Build 0)  -->
<!DOCTYPE svg PUBLIC "-//W3C//DTD SVG 1.1//EN" "http://www.w3.org/Graphics/SVG/1.1/DTD/svg11.dtd">
<svg version="1.1" id="Layer_1" xmlns="http://www.w3.org/2000/svg" xmlns:xlink="http://www.w3.org/1999/xlink" x="0px" y="0px"
	 width="20px" height="20px" viewBox="0 0 20 20" enable-background="new 0 0 20 20" xml:space="preserve">
<title>twitter</title>
<desc>Created with Sketch.</desc>
<g>
	<g>
		<g>
			<path fill="#999999" d="M13.75,0h-7.5C2.799,0,0,2.799,0,6.25v7.5C0,17.201,2.799,20,6.25,20h7.5c3.451,0,6.25-2.799,6.25-6.25
				v-7.5C20,2.799,17.201,0,13.75,0z M18.125,13.75c0,2.413-1.962,4.375-4.375,4.375h-7.5c-2.412,0-4.375-1.962-4.375-4.375v-7.5
				c0-2.413,1.963-4.375,4.375-4.375h7.5c2.413,0,4.375,1.963,4.375,4.375V13.75z"/>
		</g>
	</g>
	<g>
		<g>
			<path fill="#999999" d="M10,5c-2.761,0-5,2.239-5,5s2.239,5,5,5s5-2.239,5-5S12.761,5,10,5z M10,13.125
				c-1.722,0-3.125-1.403-3.125-3.125c0-1.724,1.403-3.125,3.125-3.125S13.125,8.276,13.125,10
				C13.125,11.722,11.722,13.125,10,13.125z"/>
		</g>
	</g>
	<g>
		<g>
			<circle fill="#999999" cx="15.375" cy="4.625" r="0.666"/>
		</g>
	</g>
</g>
</svg>
